<?xml version="1.0" encoding="UTF-8"?>
<svg xmlns="http://www.w3.org/2000/svg" width="1800" height="1150" viewBox="0 0 1800 1150">
<defs>
  <filter id="shadow" x="-20%" y="-20%" width="140%" height="140%"><feDropShadow dx="0" dy="8" stdDeviation="10" flood-color="#0f172a" flood-opacity="0.16"/></filter>
  <linearGradient id="bg" x1="0" x2="1" y1="0" y2="1"><stop offset="0" stop-color="#f8fafc"/><stop offset="1" stop-color="#eef2ff"/></linearGradient>
  <linearGradient id="root" x1="0" x2="1"><stop offset="0" stop-color="#0f766e"/><stop offset="1" stop-color="#2563eb"/></linearGradient>
</defs>
<style>
  .title{font:800 42px -apple-system,BlinkMacSystemFont,'Segoe UI',Arial,sans-serif;fill:#0f172a;}
  .subtitle{font:500 20px -apple-system,BlinkMacSystemFont,'Segoe UI',Arial,sans-serif;fill:#475569;}
  .node{font:750 23px -apple-system,BlinkMacSystemFont,'Segoe UI',Arial,sans-serif;fill:#0f172a;}
  .rootText{font:850 28px -apple-system,BlinkMacSystemFont,'Segoe UI',Arial,sans-serif;fill:white;}
  .chip{font:600 17px -apple-system,BlinkMacSystemFont,'Segoe UI',Arial,sans-serif;fill:#1e293b;}
</style>
<rect width="1800" height="1150" fill="url(#bg)"/>
<text class="title" x="900" y="70" text-anchor="middle">Mindmap vai trò QA/QC và quy trình ISTQB</text>
<text class="subtitle" x="900" y="106" text-anchor="middle">Sơ đồ đã chỉnh từ output AI: phân biệt QA, QC, vai trò AI và trách nhiệm tester</text>
<path d="M 900 546 C 612 546, 548 183, 260 183" fill="none" stroke="#14b8a6" stroke-width="4" stroke-linecap="round"/><path d="M 900 546 C 612 546, 548 648, 260 648" fill="none" stroke="#3b82f6" stroke-width="4" stroke-linecap="round"/><path d="M 900 546 C 1188 546, 1252 183, 1540 183" fill="none" stroke="#f59e0b" stroke-width="4" stroke-linecap="round"/><path d="M 900 546 C 1188 546, 1252 648, 1540 648" fill="none" stroke="#ef4444" stroke-width="4" stroke-linecap="round"/><path d="M 900 546 C 900 546, 900 913, 900 913" fill="none" stroke="#8b5cf6" stroke-width="4" stroke-linecap="round"/><rect x="740" y="500" width="320" height="92" rx="24" fill="url(#root)" filter="url(#shadow)"/><text class="rootText" x="900" y="538" text-anchor="middle"><tspan x="900">QA/QC 2026+</tspan><tspan x="900" dy="32">ISTQB + AI</tspan></text><rect x="95" y="145" width="330" height="76" rx="16" fill="#ccfbf1" stroke="#14b8a6" stroke-width="3" filter="url(#shadow)"/><text class="node" x="260" y="179" text-anchor="middle"><tspan x="260" dy="0">QA phòng ngừa lỗi quy</tspan><tspan x="260" dy="22">trình</tspan></text><path d="M 425 183 C 285.5 183, 254.5 273, 115 273" fill="none" stroke="#14b8a6" stroke-width="4" stroke-linecap="round"/><rect x="115" y="250" width="245" height="46" rx="13" fill="#ffffff" stroke="#14b8a6" stroke-width="2"/><text class="chip" x="237.5" y="279" text-anchor="middle"><tspan x="237.5" dy="0">Review yêu cầu</tspan></text><path d="M 425 183 C 285.5 183, 254.5 337, 115 337" fill="none" stroke="#14b8a6" stroke-width="4" stroke-linecap="round"/><rect x="115" y="314" width="245" height="46" rx="13" fill="#ffffff" stroke="#14b8a6" stroke-width="2"/><text class="chip" x="237.5" y="343" text-anchor="middle"><tspan x="237.5" dy="0">Chiến lược kiểm thử</tspan></text><path d="M 425 183 C 285.5 183, 254.5 401, 115 401" fill="none" stroke="#14b8a6" stroke-width="4" stroke-linecap="round"/><rect x="115" y="378" width="245" height="46" rx="13" fill="#ffffff" stroke="#14b8a6" stroke-width="2"/><text class="chip" x="237.5" y="407" text-anchor="middle"><tspan x="237.5" dy="0">Phân tích rủi ro</tspan></text><path d="M 425 183 C 285.5 183, 254.5 465, 115 465" fill="none" stroke="#14b8a6" stroke-width="4" stroke-linecap="round"/><rect x="115" y="442" width="245" height="46" rx="13" fill="#ffffff" stroke="#14b8a6" stroke-width="2"/><text class="chip" x="237.5" y="471" text-anchor="middle"><tspan x="237.5" dy="0">Cải tiến quy trình</tspan></text><rect x="95" y="610" width="330" height="76" rx="16" fill="#dbeafe" stroke="#3b82f6" stroke-width="3" filter="url(#shadow)"/><text class="node" x="260" y="655" text-anchor="middle"><tspan x="260" dy="0">QC đánh giá sản phẩm</tspan></text><path d="M 425 648 C 285.5 648, 254.5 738, 115 738" fill="none" stroke="#3b82f6" stroke-width="4" stroke-linecap="round"/><rect x="115" y="715" width="245" height="46" rx="13" fill="#ffffff" stroke="#3b82f6" stroke-width="2"/><text class="chip" x="237.5" y="744" text-anchor="middle"><tspan x="237.5" dy="0">Thiết kế test</tspan></text><path d="M 425 648 C 285.5 648, 254.5 802, 115 802" fill="none" stroke="#3b82f6" stroke-width="4" stroke-linecap="round"/><rect x="115" y="779" width="245" height="46" rx="13" fill="#ffffff" stroke="#3b82f6" stroke-width="2"/><text class="chip" x="237.5" y="808" text-anchor="middle"><tspan x="237.5" dy="0">Thực thi test</tspan></text><path d="M 425 648 C 285.5 648, 254.5 866, 115 866" fill="none" stroke="#3b82f6" stroke-width="4" stroke-linecap="round"/><rect x="115" y="843" width="245" height="46" rx="13" fill="#ffffff" stroke="#3b82f6" stroke-width="2"/><text class="chip" x="237.5" y="872" text-anchor="middle"><tspan x="237.5" dy="0">Báo cáo defect</tspan></text><path d="M 425 648 C 285.5 648, 254.5 930, 115 930" fill="none" stroke="#3b82f6" stroke-width="4" stroke-linecap="round"/><rect x="115" y="907" width="245" height="46" rx="13" fill="#ffffff" stroke="#3b82f6" stroke-width="2"/><text class="chip" x="237.5" y="936" text-anchor="middle"><tspan x="237.5" dy="0">Kiểm thử hồi quy</tspan></text><rect x="1375" y="145" width="330" height="76" rx="16" fill="#fef3c7" stroke="#f59e0b" stroke-width="3" filter="url(#shadow)"/><text class="node" x="1540" y="190" text-anchor="middle"><tspan x="1540" dy="0">Kiểm thử hỗ trợ bởi AI</tspan></text><path d="M 1375 183 C 1404.25 183, 1410.75 273, 1440 273" fill="none" stroke="#f59e0b" stroke-width="4" stroke-linecap="round"/><rect x="1440" y="250" width="245" height="46" rx="13" fill="#ffffff" stroke="#f59e0b" stroke-width="2"/><text class="chip" x="1562.5" y="279" text-anchor="middle"><tspan x="1562.5" dy="0">Gợi ý test case</tspan></text><path d="M 1375 183 C 1404.25 183, 1410.75 337, 1440 337" fill="none" stroke="#f59e0b" stroke-width="4" stroke-linecap="round"/><rect x="1440" y="314" width="245" height="46" rx="13" fill="#ffffff" stroke="#f59e0b" stroke-width="2"/><text class="chip" x="1562.5" y="343" text-anchor="middle"><tspan x="1562.5" dy="0">Hỗ trợ test data</tspan></text><path d="M 1375 183 C 1404.25 183, 1410.75 401, 1440 401" fill="none" stroke="#f59e0b" stroke-width="4" stroke-linecap="round"/><rect x="1440" y="378" width="245" height="46" rx="13" fill="#ffffff" stroke="#f59e0b" stroke-width="2"/><text class="chip" x="1562.5" y="407" text-anchor="middle"><tspan x="1562.5" dy="0">Phân tích log và kết quả</tspan></text><path d="M 1375 183 C 1404.25 183, 1410.75 465, 1440 465" fill="none" stroke="#f59e0b" stroke-width="4" stroke-linecap="round"/><rect x="1440" y="442" width="245" height="46" rx="13" fill="#ffffff" stroke="#f59e0b" stroke-width="2"/><text class="chip" x="1562.5" y="471" text-anchor="middle"><tspan x="1562.5" dy="0">Đánh giá LLM</tspan></text><rect x="1375" y="610" width="330" height="76" rx="16" fill="#fee2e2" stroke="#ef4444" stroke-width="3" filter="url(#shadow)"/><text class="node" x="1540" y="655" text-anchor="middle"><tspan x="1540" dy="0">Trách nhiệm của tester</tspan></text><path d="M 1375 648 C 1404.25 648, 1410.75 738, 1440 738" fill="none" stroke="#ef4444" stroke-width="4" stroke-linecap="round"/><rect x="1440" y="715" width="245" height="46" rx="13" fill="#ffffff" stroke="#ef4444" stroke-width="2"/><text class="chip" x="1562.5" y="744" text-anchor="middle"><tspan x="1562.5" dy="0">Phán đoán test oracle</tspan></text><path d="M 1375 648 C 1404.25 648, 1410.75 802, 1440 802" fill="none" stroke="#ef4444" stroke-width="4" stroke-linecap="round"/><rect x="1440" y="779" width="245" height="46" rx="13" fill="#ffffff" stroke="#ef4444" stroke-width="2"/><text class="chip" x="1562.5" y="808" text-anchor="middle"><tspan x="1562.5" dy="0">Ưu tiên rủi ro</tspan></text><path d="M 1375 648 C 1404.25 648, 1410.75 866, 1440 866" fill="none" stroke="#ef4444" stroke-width="4" stroke-linecap="round"/><rect x="1440" y="843" width="245" height="46" rx="13" fill="#ffffff" stroke="#ef4444" stroke-width="2"/><text class="chip" x="1562.5" y="872" text-anchor="middle"><tspan x="1562.5" dy="0">Thu thập bằng chứng</tspan></text><path d="M 1375 648 C 1404.25 648, 1410.75 930, 1440 930" fill="none" stroke="#ef4444" stroke-width="4" stroke-linecap="round"/><rect x="1440" y="907" width="245" height="46" rx="13" fill="#ffffff" stroke="#ef4444" stroke-width="2"/><text class="chip" x="1562.5" y="936" text-anchor="middle"><tspan x="1562.5" dy="0">Khai báo đạo đức</tspan></text><rect x="585" y="875" width="630" height="76" rx="16" fill="#ede9fe" stroke="#8b5cf6" stroke-width="3" filter="url(#shadow)"/><text class="node" x="900" y="920" text-anchor="middle"><tspan x="900" dy="0">Quy trình kiểm thử ISTQB</tspan></text><path d="M 900 951 C 651.375 951, 596.125 985, 347.5 985" fill="none" stroke="#8b5cf6" stroke-width="4" stroke-linecap="round"/><rect x="225" y="985" width="245" height="46" rx="13" fill="#ffffff" stroke="#8b5cf6" stroke-width="2"/><text class="chip" x="347.5" y="1014" text-anchor="middle"><tspan x="347.5" dy="0">Lập kế hoạch test</tspan></text><path d="M 900 951 C 766.125 951, 736.375 985, 602.5 985" fill="none" stroke="#8b5cf6" stroke-width="4" stroke-linecap="round"/><rect x="480" y="985" width="245" height="46" rx="13" fill="#ffffff" stroke="#8b5cf6" stroke-width="2"/><text class="chip" x="602.5" y="1014" text-anchor="middle"><tspan x="602.5" dy="0">Giám sát và kiểm soát</tspan></text><path d="M 900 951 C 880.875 951, 876.625 985, 857.5 985" fill="none" stroke="#8b5cf6" stroke-width="4" stroke-linecap="round"/><rect x="735" y="985" width="245" height="46" rx="13" fill="#ffffff" stroke="#8b5cf6" stroke-width="2"/><text class="chip" x="857.5" y="1014" text-anchor="middle"><tspan x="857.5" dy="0">Phân tích test</tspan></text><path d="M 900 951 C 995.625 951, 1016.875 985, 1112.5 985" fill="none" stroke="#8b5cf6" stroke-width="4" stroke-linecap="round"/><rect x="990" y="985" width="245" height="46" rx="13" fill="#ffffff" stroke="#8b5cf6" stroke-width="2"/><text class="chip" x="1112.5" y="1014" text-anchor="middle"><tspan x="1112.5" dy="0">Thiết kế test</tspan></text><path d="M 900 951 C 1099.125 951, 1143.375 985, 1342.5 985" fill="none" stroke="#8b5cf6" stroke-width="4" stroke-linecap="round"/><rect x="1220" y="985" width="245" height="46" rx="13" fill="#ffffff" stroke="#8b5cf6" stroke-width="2"/><text class="chip" x="1342.5" y="1014" text-anchor="middle"><tspan x="1342.5" dy="0">Triển khai test</tspan></text><path d="M 900 951 C 813.375 951, 794.125 1060, 707.5 1060" fill="none" stroke="#8b5cf6" stroke-width="4" stroke-linecap="round"/><rect x="585" y="1060" width="245" height="46" rx="13" fill="#ffffff" stroke="#8b5cf6" stroke-width="2"/><text class="chip" x="707.5" y="1089" text-anchor="middle"><tspan x="707.5" dy="0">Thực thi test</tspan></text><path d="M 900 951 C 928.125 951, 934.375 1060, 962.5 1060" fill="none" stroke="#8b5cf6" stroke-width="4" stroke-linecap="round"/><rect x="840" y="1060" width="245" height="46" rx="13" fill="#ffffff" stroke="#8b5cf6" stroke-width="2"/><text class="chip" x="962.5" y="1089" text-anchor="middle"><tspan x="962.5" dy="0">Hoàn tất test</tspan></text></svg>